<?xml version="1.0" standalone="no"?>
<!DOCTYPE svg PUBLIC "-//W3C//DTD SVG 20010904//EN"
 "http://www.w3.org/TR/2001/REC-SVG-20010904/DTD/svg10.dtd">
<svg version="1.0" xmlns="http://www.w3.org/2000/svg"
 width="350.000000pt" height="350.000000pt" viewBox="0 0 350.000000 350.000000"
 preserveAspectRatio="xMidYMid meet">

<g transform="translate(0.000000,350.000000) scale(0.100000,-0.100000)"
fill="#000000" stroke="none">
<path d="M0 1750 l0 -1750 1750 0 1750 0 0 1750 0 1750 -1750 0 -1750 0 0
-1750z m1244 548 c53 -216 96 -396 96 -400 0 -5 -15 -8 -33 -8 l-32 0 -89 358
c-49 196 -90 358 -90 359 -1 1 -53 -11 -115 -28 -62 -17 -117 -27 -121 -22 -5
4 -11 19 -15 33 -6 25 -4 26 137 62 79 20 148 36 154 37 6 1 52 -165 108 -391z
m1136 288 c0 -2 -12 -29 -26 -60 l-25 -56 -460 0 -459 0 7 -27 c4 -16 14 -59
23 -98 l16 -70 402 -5 401 -5 -83 -185 -83 -185 -333 0 -334 0 -17 58 -17 57
302 0 301 0 24 58 c13 31 25 63 28 69 4 10 -71 13 -342 15 l-347 3 -40 160
c-21 88 -45 186 -53 218 l-13 57 564 0 c310 0 564 -2 564 -4z m-869 -794 c47
-39 17 -122 -44 -122 -41 0 -67 26 -67 67 0 63 62 94 111 55z m487 -2 c26 -24
29 -66 6 -98 -22 -32 -76 -30 -103 4 -27 35 -26 59 4 89 29 30 64 32 93 5z
m-1393 -450 c9 -10 15 -26 12 -35 -8 -19 -47 -20 -47 0 0 10 -11 15 -35 15
-31 0 -35 -3 -35 -25 0 -21 5 -25 30 -25 17 0 44 -7 60 -15 26 -13 30 -21 30
-57 0 -58 -21 -78 -82 -78 -62 0 -88 14 -88 45 0 20 5 25 25 25 16 0 25 -6 25
-15 0 -10 11 -15 35 -15 32 0 35 2 35 30 0 28 -2 30 -41 30 -65 0 -79 13 -79
70 0 59 13 69 86 70 38 0 55 -5 69 -20z m115 -30 l0 -50 45 0 45 0 0 50 c0 47
2 50 25 50 l25 0 0 -120 0 -120 -25 0 c-23 0 -25 3 -25 50 l0 50 -45 0 -45 0
0 -50 c0 -47 -2 -50 -25 -50 l-25 0 0 120 0 120 25 0 c23 0 25 -3 25 -50z
m361 40 c17 -10 19 -22 19 -110 0 -116 -3 -120 -95 -120 -92 0 -95 4 -95 120
0 84 3 101 18 109 22 14 128 14 153 1z m220 0 c15 -9 19 -22 19 -65 0 -63 -13
-75 -79 -75 l-41 0 0 -45 c0 -41 -2 -45 -25 -45 l-25 0 0 120 0 120 66 0 c36
0 74 -5 85 -10z m210 0 c15 -9 19 -22 19 -65 0 -63 -13 -75 -79 -75 l-41 0 0
-45 c0 -41 -2 -45 -25 -45 l-25 0 0 120 0 120 66 0 c36 0 74 -5 85 -10z m109
-110 l0 -120 -25 0 -25 0 0 120 0 120 25 0 25 0 0 -120z m152 47 l48 -72 0 73
c0 70 1 72 25 72 l25 0 0 -120 c0 -118 0 -120 -22 -120 -17 0 -35 19 -70 73
l-48 72 0 -72 c0 -71 -1 -73 -25 -73 l-25 0 0 120 c0 118 0 120 23 120 16 0
34 -19 69 -73z m309 63 c11 -6 19 -21 19 -35 0 -20 -5 -25 -25 -25 -16 0 -25
6 -25 15 0 11 -11 15 -40 15 l-40 0 0 -80 0 -80 40 0 c36 0 40 3 40 25 0 18
-5 25 -20 25 -13 0 -20 7 -20 20 0 17 7 20 45 20 l45 0 0 -55 c0 -65 -12 -75
-92 -75 -81 1 -88 10 -88 120 0 77 3 95 18 106 20 16 115 18 143 4z m310 0
c11 -6 19 -21 19 -35 0 -20 -5 -25 -25 -25 -16 0 -25 6 -25 15 0 10 -11 15
-35 15 l-35 0 0 -80 0 -80 35 0 c24 0 35 5 35 15 0 9 9 15 25 15 20 0 25 -5
25 -25 0 -31 -26 -45 -85 -45 -81 0 -85 6 -85 120 0 84 3 101 18 109 22 14
108 14 133 1z m224 -97 c20 -60 39 -114 42 -120 3 -9 -4 -13 -21 -13 -19 0
-27 6 -32 25 -5 22 -12 25 -50 25 -38 0 -46 -4 -54 -25 -7 -17 -17 -25 -34
-25 l-25 0 42 120 c39 113 44 120 69 120 25 0 29 -7 63 -107z m226 97 c26 -15
28 -114 2 -129 -17 -9 -16 -12 5 -56 l22 -46 -27 3 c-21 2 -34 14 -51 46 -32
57 -52 56 -52 -3 0 -41 -2 -45 -25 -45 l-25 0 0 120 0 120 66 0 c36 0 74 -5
85 -10z m229 -10 c0 -16 -7 -20 -30 -20 l-30 0 0 -100 0 -100 -25 0 -25 0 0
100 0 100 -35 0 c-28 0 -35 4 -35 20 0 19 7 20 90 20 83 0 90 -1 90 -20z"/>
<path d="M960 1240 l0 -80 45 0 45 0 0 80 0 80 -45 0 -45 0 0 -80z"/>
<path d="M1200 1285 c0 -33 2 -35 35 -35 33 0 35 2 35 35 0 33 -2 35 -35 35
-33 0 -35 -2 -35 -35z"/>
<path d="M1410 1285 c0 -33 2 -35 35 -35 33 0 35 2 35 35 0 33 -2 35 -35 35
-33 0 -35 -2 -35 -35z"/>
<path d="M2533 1245 c-11 -34 -11 -35 17 -35 28 0 28 1 17 35 -6 19 -13 35
-17 35 -4 0 -11 -16 -17 -35z"/>
<path d="M2740 1285 c0 -33 2 -35 35 -35 33 0 35 2 35 35 0 33 -2 35 -35 35
-33 0 -35 -2 -35 -35z"/>
</g>
</svg>
